<?xml version="1.0" standalone="no"?>
<!DOCTYPE svg PUBLIC "-//W3C//DTD SVG 20010904//EN"
 "http://www.w3.org/TR/2001/REC-SVG-20010904/DTD/svg10.dtd">
<svg version="1.0" xmlns="http://www.w3.org/2000/svg"
 width="139.000000pt" height="139.000000pt" viewBox="0 0 139.000000 139.000000"
 preserveAspectRatio="xMidYMid meet">

<g transform="translate(0.000000,139.000000) scale(0.100000,-0.100000)"
fill="#000000" stroke="none">
<path d="M525 1030 l-60 -7 60 -1 c33 0 69 3 80 8 l20 9 -20 -1 c-11 -1 -47
-4 -80 -8z"/>
<path d="M760 1031 c8 -5 42 -6 75 -1 l60 7 -75 1 c-47 1 -69 -2 -60 -7z"/>
<path d="M1000 1027 c0 -8 -7 -20 -15 -27 -19 -15 -218 -39 -334 -40 -103 0
-265 -25 -309 -47 -59 -30 -77 -92 -45 -158 14 -29 15 -40 5 -55 -7 -11 -12
-40 -12 -64 0 -36 5 -47 25 -60 21 -14 25 -24 25 -64 0 -56 21 -92 55 -92 30
0 41 19 50 87 9 72 19 78 108 64 220 -35 336 -39 435 -14 72 18 86 29 101 82
8 27 6 43 -10 78 -15 33 -18 55 -14 88 5 32 3 51 -11 73 -16 29 -16 32 1 68
16 34 16 41 4 64 -16 28 -59 41 -59 17z"/>
<path d="M660 990 c0 -5 9 -10 20 -10 11 0 20 5 20 10 0 6 -9 10 -20 10 -11 0
-20 -4 -20 -10z"/>
</g>
</svg>
